<svg width="2993" height="1017" viewBox="0 0 2993 1017" fill="none" xmlns="http://www.w3.org/2000/svg">
<path d="M823.66 118C823.66 179.028 774.188 228.5 713.16 228.5C652.133 228.5 602.66 179.028 602.66 118C602.66 56.9729 652.133 7.50037 713.16 7.50037C774.188 7.50037 823.66 56.9729 823.66 118Z" fill="#0050CA" stroke="#FEFEFE" stroke-width="15"/>
<circle cx="1237.16" cy="118" r="110.5" transform="rotate(90 1237.16 118)" fill="#0050CA" stroke="#FEFEFE" stroke-width="15"/>
<circle cx="1237.16" cy="118" r="110.5" transform="rotate(90 1237.16 118)" fill="#0050CA" stroke="#FEFEFE" stroke-width="15"/>
<circle cx="1761.16" cy="130.001" r="110.5" transform="rotate(90 1761.16 130.001)" fill="#0050CA" stroke="#FEFEFE" stroke-width="15"/>
<circle cx="682" cy="505.427" r="110.5" transform="rotate(90 682 505.427)" fill="#09AC00" stroke="white" stroke-width="15"/>
<circle cx="1246.16" cy="505" r="110.5" transform="rotate(90 1246.16 505)" fill="#09AC00" stroke="white" stroke-width="15"/>
<circle cx="1807.16" cy="505.001" r="110.5" transform="rotate(90 1807.16 505.001)" fill="#09AC00" stroke="white" stroke-width="15"/>
<circle cx="2338.16" cy="499.004" r="110.5" transform="rotate(90 2338.16 499.004)" fill="#09AC00" stroke="white" stroke-width="15"/>
<circle cx="2875" cy="499.001" r="110.5" transform="rotate(90 2875 499.001)" fill="#09AC00" stroke="white" stroke-width="15"/>
<path d="M1350.66 898.029C1350.66 959.057 1301.19 1008.53 1240.16 1008.53C1179.13 1008.53 1129.66 959.057 1129.66 898.029L1129.67 896.601C1130.43 836.232 1179.61 787.529 1240.16 787.529L1241.59 787.538C1301.48 788.296 1349.89 836.707 1350.65 896.601L1350.66 898.029Z" fill="#9200AC" stroke="white" stroke-width="15"/>
<path d="M1907.66 898.021C1907.66 959.049 1858.19 1008.52 1797.16 1008.52C1736.13 1008.52 1686.66 959.049 1686.66 898.021L1686.67 896.594C1687.43 836.224 1736.61 787.521 1797.16 787.521L1798.59 787.53C1858.48 788.289 1906.89 836.699 1907.65 896.594L1907.66 898.021Z" fill="#9200AC" stroke="white" stroke-width="15"/>
<circle cx="118" cy="505.427" r="110.5" transform="rotate(90 118 505.427)" fill="#09AC00" stroke="white" stroke-width="15"/>
<line x1="236" y1="497.928" x2="566" y2="497.928" stroke="white" stroke-width="15"/>
<line x1="800.16" y1="497.5" x2="1130.16" y2="497.5" stroke="white" stroke-width="15"/>
<line x1="1361.16" y1="497.501" x2="1691.16" y2="497.501" stroke="white" stroke-width="15"/>
<line x1="1922.16" y1="497.504" x2="2224.16" y2="497.504" stroke="white" stroke-width="15"/>
<line x1="2455" y1="491.501" x2="2757" y2="491.501" stroke="white" stroke-width="15"/>
<line x1="1349.16" y1="890.529" x2="1679.16" y2="890.529" stroke="white" stroke-width="15"/>
<line x1="831.16" y1="110.5" x2="1119.16" y2="110.5" stroke="white" stroke-width="15"/>
<line x1="1355.16" y1="122.501" x2="1643.16" y2="122.501" stroke="white" stroke-width="15"/>
<path d="M236.16 499C508.178 499 413.958 127.593 595.16 118" stroke="white" stroke-width="15"/>
<path d="M2231.16 499.002C1956.87 499.002 2051.88 127.595 1869.16 118.002" stroke="white" stroke-width="15"/>
<path d="M2758 489.001C2321 489.001 2771.5 898.201 1915 898.202" stroke="white" stroke-width="15"/>
<path d="M800.16 499.001C1045.66 499.001 960.624 887.955 1124.16 898.001" stroke="white" stroke-width="15"/>
</svg>
